<svg width="25" height="25" viewBox="0 0 40 40" fill="none" xmlns="http://www.w3.org/2000/svg">
<path d="M41 37.7568L28.8958 25.6526C30.905 22.9714 32.1107 19.6556 32.1107 16.0553C32.1107 7.20197 24.9087 0 16.0553 0C7.20197 0 0 7.20197 0 16.0553C0 24.9087 7.20197 32.1107 16.0553 32.1107C19.6556 32.1107 22.9714 30.905 25.6526 28.8958L37.7568 41L41 37.7568ZM1.52908 16.0553C1.52908 8.04526 8.04526 1.52908 16.0553 1.52908C24.0654 1.52908 30.5816 8.04526 30.5816 16.0553C30.5816 24.0654 24.0654 30.5816 16.0553 30.5816C8.04526 30.5816 1.52908 24.0654 1.52908 16.0553ZM27.1924 27.5946C27.3285 27.463 27.4623 27.3293 27.5938 27.1932C27.7054 27.0777 27.8262 26.9715 27.934 26.8529L38.8379 37.7568L37.7561 38.8386L26.8529 27.934C26.9715 27.8262 27.077 27.7054 27.1924 27.5946Z" fill="#757575"/>
</svg>
